PathFileType	4	(X/Y/Z)	 s05c0202.trc
DataRate	CameraRate	NumFrames	NumMarkers	Units	OrigDataRate	OrigDataStartFrame	OrigNumFrames
200	200	7	49	mm	200	501	2000
Frame#	Time	racr			lacr			c7			jug			rlel			rdr			llel			ldr			s2			lic			ric			lasi			rasi			rpsi			lpsi			rgt			lgt			rth1			rth2			rth3			rth4			rlfc			rsh1			rsh2			rsh3			rsh4			rlmal			rmmal			rcal			rtoe			rmt5			lth1			lth2			lth4			lth3			llfc			lmfc			lsh1			lsh2			lsh3			lsh4			llmal			lmmal			lcal			ltoe			lmt5			SBIKE			LBIKE			RBIKE			
		X1	Y1	Z1	X2	Y2	Z2	X3	Y3	Z3	X4	Y4	Z4	X5	Y5	Z5	X6	Y6	Z6	X7	Y7	Z7	X8	Y8	Z8	X9	Y9	Z9	X10	Y10	Z10	X11	Y11	Z11	X12	Y12	Z12	X13	Y13	Z13	X14	Y14	Z14	X15	Y15	Z15	X16	Y16	Z16	X17	Y17	Z17	X18	Y18	Z18	X19	Y19	Z19	X20	Y20	Z20	X21	Y21	Z21	X22	Y22	Z22	X23	Y23	Z23	X24	Y24	Z24	X25	Y25	Z25	X26	Y26	Z26	X27	Y27	Z27	X28	Y28	Z28	X29	Y29	Z29	X30	Y30	Z30	X31	Y31	Z31	X32	Y32	Z32	X33	Y33	Z33	X34	Y34	Z34	X35	Y35	Z35	X36	Y36	Z36	X37	Y37	Z37	X38	Y38	Z38	X39	Y39	Z39	X40	Y40	Z40	X41	Y41	Z41	X42	Y42	Z42	X43	Y43	Z43	X44	Y44	Z44	X45	Y45	Z45	X46	Y46	Z46	X47	Y47	Z47	X48	Y48	Z48	X49	Y49	Z49	
501	2.5050	491.909061	1289.816842	-204.648723	438.215437	1318.467450	-461.949085	436.408158	1379.612825	-336.438688	402.407061	1212.484852	-332.163136	471.717926	1089.517492	2.690046	669.571994	966.592177	-72.146037	436.363395	1064.187562	-599.147140	763.863741	1035.709860	-448.399730	-119.065508	1183.832442	-207.176990	-5.416942	1210.865967	-372.940805	61.154551	1178.049541	-98.222552	40.522263	1150.923348	-349.619245	88.934203	1119.904342	-139.288883	-68.973523	1225.376364	-166.567887	-88.116667	1240.968768	-250.487831	6.847175	1046.245773	-72.992925	-69.698973	1116.000926	-401.405373	90.448946	962.567121	-76.787381	161.857813	910.746233	-87.361164	196.264150	829.919140	-97.218142	187.444863	933.548611	-100.876239	276.074240	708.685960	-130.879570	200.812087	635.091383	-96.943725	164.876268	554.616191	-108.898883	98.806803	500.048717	-104.446148	185.239961	541.034126	-138.581976	17.746243	390.085823	-106.647898	40.614765	408.713183	-188.652443	-59.903694	402.398599	-151.241365	164.732790	207.041012	-153.756523	71.266186	248.690264	-88.556910	46.098894	1025.752574	-432.251128	130.581317	1009.058878	-436.320376	148.604712	1039.964312	-423.755026	197.193262	948.152867	-441.532154	318.718440	859.972936	-420.181181	313.684210	844.025122	-310.452766	274.346884	739.030182	-444.616244	274.857692	652.197929	-433.417051	230.128692	575.229879	-431.419570	304.476999	646.718613	-409.239559	202.654935	454.906452	-424.579131	224.185980	487.318296	-346.958588	149.684126	398.143687	-382.483074	439.230891	448.749071	-395.709226	339.831282	396.784500	-457.100946	-171.954662	902.164921	-262.441966	-43.583524	84.824307	-474.902438	-51.884562	79.978247	-77.392287	
502	2.5100	491.129763	1289.645716	-204.397760	437.169694	1318.401141	-461.638797	435.687370	1379.235313	-335.405368	401.539896	1212.214122	-331.848506	471.434621	1088.987060	2.634306	669.025595	966.023630	-72.854617	435.778385	1064.349087	-598.948333	660.911191	974.431133	-480.209004	-120.177690	1183.730198	-207.788874	-5.830043	1210.746440	-373.249410	59.662697	1177.852317	-97.997966	40.151823	1150.776459	-349.815916	86.954742	1120.028022	-139.251697	-70.297094	1225.393621	-166.975249	-88.921669	1240.787115	-250.987211	5.499881	1046.548749	-73.070247	-70.057795	1115.251086	-401.739336	89.910277	963.684536	-77.109660	161.904204	912.533414	-87.440323	197.151947	832.130283	-97.099907	187.236261	935.590299	-100.720975	278.126980	711.767681	-130.876971	202.141971	638.768677	-97.114882	165.309211	558.739624	-109.090593	98.648642	504.943599	-104.634333	185.494784	545.104984	-138.696270	16.235718	396.189087	-106.856322	37.400820	416.115006	-188.384727	-61.397087	409.143103	-151.409034	161.874789	212.142966	-153.745017	68.670736	254.552243	-88.627998	45.674251	1023.967134	-432.255725	129.872395	1005.978957	-435.833470	148.294895	1036.703124	-423.386727	195.608449	944.133179	-440.569441	316.012875	854.953956	-418.592816	309.889060	837.869317	-309.345029	272.888874	733.549353	-443.869538	274.533412	646.752230	-432.919259	230.822258	569.138962	-431.548695	304.072188	641.502624	-408.531248	204.883755	448.636590	-425.271892	225.933228	480.683561	-347.303616	152.065943	391.554401	-383.710325	441.659493	442.922417	-395.144400	342.668830	390.890619	-457.268317	-172.036656	902.162727	-262.443666	-43.584331	84.831177	-474.887455	-51.872940	79.953660	-77.411879	
503	2.5150	490.422569	1289.344152	-204.031959	436.295596	1318.459117	-461.266362	434.871302	1379.217632	-334.864637	400.759910	1212.117441	-331.552687	471.183441	1088.544260	2.575748	668.418145	965.407071	-73.556497	435.214902	1064.624035	-598.708104	660.670368	974.494464	-480.331117	-121.223563	1183.750004	-208.530806	-6.326817	1210.614376	-373.518802	58.097973	1178.103415	-98.121984	39.932962	1150.702330	-350.284773	85.451537	1120.270604	-139.103301	-71.620473	1225.525241	-167.599573	-89.860118	1240.698029	-251.713084	3.458457	1046.937615	-73.591937	-70.414692	1114.593920	-402.184621	89.252287	965.058986	-77.263930	161.895400	914.629946	-87.441265	197.889285	834.454554	-96.806899	186.958663	937.788707	-100.504040	280.103039	714.939085	-130.807663	203.361148	642.712845	-97.137864	165.644782	563.051578	-109.200237	98.465921	509.930035	-104.891961	185.779858	549.211327	-138.804924	14.848242	402.380295	-107.011574	36.638629	421.701166	-188.879216	-62.841502	415.801275	-151.623292	159.284828	217.586288	-153.644103	66.283172	260.482904	-88.636899	45.111904	1022.122433	-432.316839	129.096354	1002.891824	-435.394733	147.938254	1033.304951	-423.056811	193.923500	940.058231	-439.634701	313.221389	849.772858	-416.666117	306.089283	832.496061	-308.101569	271.341454	728.125421	-443.096159	274.130389	641.275560	-432.345758	231.480755	563.173569	-431.697519	303.593172	636.368249	-407.795820	207.063040	442.337178	-426.377265	227.405176	474.333025	-348.030971	154.414529	384.945975	-385.164378	443.856820	437.292947	-394.710395	345.462473	384.875896	-457.428876	-171.947625	902.149339	-262.240442	-43.591771	84.840571	-474.894790	-51.907123	79.950772	-77.363157	
504	2.5200	489.649519	1289.375857	-203.591449	435.507440	1318.581359	-460.761746	434.166204	1379.337829	-334.334654	401.514343	1211.610949	-332.399972	471.003485	1088.154361	2.418621	667.857319	964.887979	-74.130543	434.639259	1065.009017	-598.423275	660.381489	974.601277	-480.436646	-122.276328	1183.837146	-209.441885	-6.520373	1210.588381	-374.022428	56.493115	1178.345017	-98.375240	39.702282	1150.632389	-350.576484	83.993741	1120.541225	-139.048143	-72.909601	1225.824491	-168.379045	-90.746228	1239.907671	-252.080628	1.429584	1047.574503	-74.991616	-70.717905	1113.930024	-402.719464	88.597335	966.504847	-77.296298	161.773979	916.802043	-87.098862	198.622350	837.024429	-96.391119	186.624453	940.250575	-100.282935	281.967324	718.342089	-130.510606	204.459811	646.824536	-97.066096	165.809707	567.463933	-109.274157	98.194127	515.195592	-105.129928	186.102838	553.604001	-138.763112	13.469758	408.671051	-107.081779	35.633236	427.713434	-189.032966	-64.031627	422.579049	-151.839866	156.884858	222.896320	-153.641552	64.101967	266.461779	-88.700468	44.508783	1020.176288	-432.387865	128.087578	999.723134	-434.970470	147.446875	1029.939358	-422.840859	192.146226	935.922272	-438.637678	310.352700	844.735389	-414.974472	302.162844	827.296767	-306.701850	269.882937	722.738527	-442.397959	273.587209	635.986381	-431.960420	231.943941	557.348022	-432.006152	303.032473	631.207797	-407.139033	209.244478	435.694666	-427.336427	228.551027	467.662751	-348.776559	156.585102	378.546596	-386.395225	446.015394	431.384071	-394.373066	348.042335	378.834315	-457.575517	-171.938628	902.151385	-262.015216	-43.615972	84.815411	-474.852415	-51.895449	79.948009	-77.378479	
505	2.5250	489.030461	1289.452552	-203.130146	435.026755	1318.835737	-460.302241	433.569221	1379.527813	-333.754907	401.017363	1211.565028	-331.995175	470.859194	1087.863915	2.232089	667.391665	964.466020	-74.506842	434.157719	1065.487718	-598.154972	660.098999	974.685233	-480.496429	-123.240477	1184.032423	-210.533576	-6.581923	1210.555638	-374.628883	54.996370	1179.053184	-98.591243	39.577576	1150.648061	-351.013640	82.495335	1121.011057	-138.969230	-74.140570	1226.154027	-169.282682	-91.511628	1239.846348	-252.919627	0.177411	1048.274800	-75.373329	-70.920092	1113.281806	-403.353700	87.888451	967.997533	-77.249770	161.612789	919.109314	-86.692277	199.281459	839.639042	-95.944829	186.231638	942.797378	-100.020675	283.823595	721.898151	-130.163530	205.533245	651.119505	-96.908162	166.158188	572.073097	-109.191123	97.966593	520.503776	-105.329643	186.479867	557.961074	-138.543257	12.461964	415.142640	-107.266372	34.938993	433.891984	-189.159329	-65.057589	429.486713	-152.017528	154.647088	228.572775	-153.626000	62.178472	272.713254	-88.692848	43.895256	1018.133796	-432.404070	127.167377	996.485337	-434.653133	146.886674	1026.441128	-422.621000	190.325160	931.755084	-437.534665	307.375238	839.765594	-413.282737	298.799460	822.188735	-304.584981	268.271242	717.488973	-441.851302	272.757602	630.577565	-431.332069	232.356966	551.669350	-432.467207	302.338265	626.319194	-406.831510	211.215621	429.635219	-428.311456	229.686931	461.467312	-349.586129	158.672061	372.199458	-387.953470	448.104914	425.262405	-393.744715	350.541378	372.856036	-457.735842	-172.195174	902.166680	-261.934991	-43.612224	84.832100	-474.865566	-51.906667	79.938834	-77.391990	
506	2.5300	488.342895	1289.538346	-202.532598	435.268098	1319.628385	-461.843258	433.037375	1379.903606	-332.992118	400.560089	1211.756115	-331.494259	470.728651	1087.637824	2.008376	666.986674	964.153695	-74.582411	433.726528	1066.003935	-597.827698	659.823079	974.782287	-480.510479	-124.115358	1184.312314	-211.767853	-6.472610	1210.657522	-375.425706	53.388255	1179.692973	-99.051597	39.522797	1150.655687	-351.430692	81.017352	1121.613364	-139.078985	-75.371952	1226.676633	-170.387630	-92.166670	1239.906228	-253.988690	-1.151568	1049.246031	-75.827954	-71.075180	1112.694736	-404.116674	87.187223	969.627081	-77.019167	161.459693	921.533161	-86.309183	200.023820	842.458853	-95.514593	185.835410	945.437613	-99.759620	285.523479	725.525791	-129.709609	206.603685	655.446154	-96.597435	166.476893	576.849198	-109.050609	97.812071	525.854710	-105.489429	186.864834	562.500854	-138.173096	11.456842	421.393297	-107.452268	34.195987	440.142185	-189.215771	-65.991249	436.257114	-152.211149	152.696041	234.198502	-153.569614	60.411246	278.801343	-88.748272	43.201222	1016.089082	-432.593069	126.155949	993.223843	-434.300018	146.254629	1023.074183	-422.582763	188.441417	927.611607	-436.453459	304.334197	834.846991	-412.102798	295.661278	817.451690	-302.353707	266.533469	712.412604	-441.365832	272.203035	625.336867	-430.973340	232.754613	545.998463	-432.946702	301.532680	621.433494	-406.480871	213.249469	423.500453	-429.278269	230.939567	455.273238	-350.380221	160.518002	366.207043	-389.235369	450.056138	419.030865	-393.193411	352.882146	366.726387	-457.836774	-172.147043	902.143660	-261.757502	-43.619875	84.871144	-474.889091	-51.925521	79.950510	-77.397191	
507	2.5350	487.585875	1289.931902	-202.001366	435.003575	1320.169645	-461.312473	432.589954	1380.341212	-332.218953	400.223200	1212.223316	-330.919996	470.577575	1087.481014	1.744540	666.732475	963.974900	-74.405713	433.361306	1066.568144	-597.489559	659.592307	974.833880	-480.521948	-125.014875	1184.674364	-213.075867	-6.395357	1210.640094	-376.135387	51.884360	1180.423709	-99.385889	39.553799	1150.713652	-351.936472	79.554145	1122.247306	-139.227598	-76.569352	1227.169724	-171.617739	-92.794906	1239.942031	-255.160789	-2.397089	1050.426013	-76.279209	-71.156439	1112.056351	-404.927037	86.410796	971.364345	-76.841909	161.341516	924.140101	-85.960539	200.793881	845.566306	-95.134978	185.465995	948.345720	-99.383799	287.300161	729.510825	-129.212208	207.703743	660.024379	-96.211392	166.906949	581.722094	-108.766134	97.647698	531.537706	-105.435320	187.246490	567.134411	-137.745856	10.701700	427.888571	-107.458161	33.524960	446.453705	-189.231843	-66.708196	443.119521	-152.314520	151.014255	240.105784	-153.508985	58.844254	285.086208	-88.716609	42.510409	1014.067823	-432.860812	125.163304	990.005459	-433.973173	145.579027	1019.614931	-422.391052	186.471480	923.525147	-435.402078	301.039449	829.821697	-410.118697	288.920721	810.790133	-303.730086	264.865976	707.392027	-440.800058	271.486838	620.205004	-430.818804	233.159522	540.406378	-433.410706	300.663603	616.675900	-406.003816	215.023358	417.586446	-430.218042	232.398769	449.308116	-351.146844	162.216242	360.269276	-390.467207	452.019809	412.244401	-392.252787	354.936579	360.682117	-457.975763	-172.210507	902.108745	-261.530552	-43.612920	84.873297	-474.888135	-51.923471	79.964894	-77.397802	
